<svg width="35" height="34" viewBox="0 0 35 34" fill="none" xmlns="http://www.w3.org/2000/svg">
<g clip-path="url(#clip0_114_450)">
<path d="M0.138901 33.8652L2.58946 25.2119C1.08373 22.6733 0.292998 19.7943 0.29687 16.8645C0.279439 7.63236 7.9973 0.13501 17.4826 0.13501C22.0863 0.13501 26.4089 1.86884 29.6636 5.03162C31.2679 6.58196 32.5394 8.42615 33.4047 10.4573C34.27 12.4885 34.7116 14.6663 34.7042 16.8645C34.7042 26.0789 26.9863 33.5763 17.5 33.5763C14.6125 33.5763 11.7947 32.8787 9.27439 31.5364L0.138901 33.8652ZM9.67751 28.5272L10.2027 28.833C12.4071 30.1002 14.9212 30.7694 17.4826 30.7711C25.3583 30.7711 31.7818 24.5324 31.7818 16.8805C31.7818 13.1747 30.2945 9.67312 27.5986 7.05543C26.2731 5.76041 24.6967 4.73304 22.9606 4.03255C21.2243 3.33204 19.3625 2.97226 17.4826 2.97393C9.5893 2.97492 3.168 9.21375 3.168 16.8655C3.168 19.4833 3.9209 22.0512 5.35595 24.2613L5.68829 24.7884L4.23581 29.9221L9.67751 28.5272Z" fill="#2B4769"/>
<path fill-rule="evenodd" clip-rule="evenodd" d="M13.1949 9.86031C12.8799 9.16279 12.5302 9.14584 12.2327 9.14584C11.9701 9.12891 11.689 9.12891 11.3916 9.12891C11.1125 9.12891 10.6397 9.23055 10.2376 9.65602C9.83444 10.0805 8.73276 11.084 8.73276 13.1407C8.73276 15.1984 10.2724 17.1873 10.4827 17.4593C10.692 17.7314 13.4574 22.0829 17.8333 23.7669C21.4727 25.161 22.2083 24.8889 22.996 24.8032C23.7828 24.7186 25.5339 23.8008 25.901 22.8143C26.2509 21.8458 26.2509 20.9958 26.1462 20.8253C26.0415 20.656 25.743 20.5532 25.3236 20.3321C24.8856 20.1287 22.7858 19.1084 22.3837 18.972C21.9806 18.8364 21.7005 18.7686 21.4205 19.1762C21.1404 19.6017 20.3177 20.5364 20.0562 20.8084C19.8101 21.0804 19.5484 21.1143 19.1279 20.9101C18.691 20.7067 17.3082 20.2643 15.6628 18.8364C14.3847 17.7304 13.5272 16.3542 13.2646 15.9467C13.0205 15.5212 13.2297 15.2999 13.4574 15.0957C13.6503 14.9093 13.8954 14.6034 14.1057 14.3653C14.3149 14.1261 14.3847 13.9398 14.5427 13.6677C14.6823 13.3957 14.6125 13.1407 14.5078 12.9374C14.4023 12.75 13.5805 10.6933 13.1949 9.86031Z" fill="#2B4769"/>
</g>
<defs>
<clipPath id="clip0_114_450">
<rect width="35" height="34" fill="white"/>
</clipPath>
</defs>
</svg>
