<svg width="37" height="35" viewBox="0 0 37 35" fill="none" xmlns="http://www.w3.org/2000/svg">
<g clip-path="url(#clip0_114_161)">
<path fill-rule="evenodd" clip-rule="evenodd" d="M37 35H29.6V22.7517C29.6 19.3917 28.0331 17.5171 25.2229 17.5171C22.1649 17.5171 20.35 19.4705 20.35 22.7517V35H12.95V12.25H20.35V14.8083C20.35 14.8083 22.6717 10.9546 27.9035 10.9546C33.1372 10.9546 37 13.9757 37 20.2267V35ZM4.5177 8.61157C2.02205 8.61157 0 6.68318 0 4.30493C0 1.92843 2.02205 0 4.5177 0C7.0115 0 9.03354 1.92843 9.03354 4.30493C9.03539 6.68318 7.0115 8.61157 4.5177 8.61157ZM0 35H9.25V12.25H0V35Z" fill="#91A398" fill-opacity="0.5"/>
</g>
<defs>
<clipPath id="clip0_114_161">
<rect width="37" height="35" fill="white"/>
</clipPath>
</defs>
</svg>
