<svg width="21" height="19" viewBox="0 0 21 19" fill="none" xmlns="http://www.w3.org/2000/svg">
<g clip-path="url(#clip0_110_137)">
<path d="M17.2197 7.24375H13.4293V0.97945C13.4293 0.4446 12.9883 0 12.4599 0H8.66955C8.11102 0 7.67001 0.44555 7.67001 0.97945V7.24375H3.87967C3.38037 7.24375 3.2036 7.57055 3.58536 7.95625L9.87407 14.2795C10.0509 14.4581 10.2859 14.5464 10.5501 14.5464C10.8144 14.5464 11.0795 14.4571 11.2554 14.2795L17.514 7.95625C17.8666 7.57055 17.7491 7.24375 17.2197 7.24375ZM0 11.7268V18.4956C0 18.7929 0.146687 18.9706 0.470149 18.9706H20.569C20.8925 18.9706 21.0683 18.792 21.0683 18.4956V11.7268C21.0683 11.4295 20.8333 11.2224 20.569 11.2224H18.6593C18.3951 11.2224 18.16 11.4599 18.16 11.7268V16.0312H2.88013V11.7268C2.88013 11.4295 2.67421 11.2224 2.40999 11.2224H0.470149C0.205925 11.2224 0 11.4599 0 11.7268Z" fill="#57361B"/>
</g>
<defs>
<clipPath id="clip0_110_137">
<rect width="21" height="19" fill="white"/>
</clipPath>
</defs>
</svg>
